<?xml version="1.0" standalone="no"?>
<!DOCTYPE svg PUBLIC "-//W3C//DTD SVG 20010904//EN"
 "http://www.w3.org/TR/2001/REC-SVG-20010904/DTD/svg10.dtd">
<svg version="1.0" xmlns="http://www.w3.org/2000/svg"
 width="418.000000pt" height="418.000000pt" viewBox="0 0 418.000000 418.000000"
 preserveAspectRatio="xMidYMid meet">
<metadata>
Created by potrace 1.14, written by Peter Selinger 2001-2017
</metadata>
<g transform="translate(0.000000,418.000000) scale(0.100000,-0.100000)"
fill="#000000" stroke="none">
<path d="M2141 4023 c1 -47 3 -59 8 -38 5 25 12 31 41 36 l35 6 -38 2 c-34 1
-38 4 -35 24 2 17 11 23 43 28 l40 6 -47 2 -48 1 1 -67z"/>
<path d="M1908 4073 c7 -3 16 -2 19 1 4 3 -2 6 -13 5 -11 0 -14 -3 -6 -6z"/>
<path d="M2337 4025 c-26 -54 -37 -88 -16 -52 15 26 85 24 94 -3 3 -11 10 -20
14 -20 14 0 -36 125 -51 128 -8 1 -25 -20 -41 -53z m57 13 c9 -35 8 -38 -19
-38 -27 0 -31 10 -15 41 14 25 26 24 34 -3z"/>
<path d="M1833 4053 c3 -10 8 -39 12 -66 l6 -47 42 6 c56 9 59 14 9 14 -38 0
-42 2 -42 25 0 20 5 25 28 26 l27 1 -30 7 c-37 8 -46 38 -13 44 17 3 14 5 -10
6 -27 1 -32 -2 -29 -16z"/>
<path d="M2531 4004 c-15 -65 -7 -85 9 -25 13 48 25 46 35 -5 l6 -37 33 32
c17 17 35 31 39 31 4 0 4 -21 0 -47 -3 -27 -3 -46 0 -43 8 8 35 130 29 130 -4
0 -25 -18 -48 -41 -41 -41 -42 -41 -49 -18 -12 45 -27 79 -35 79 -4 0 -12 -25
-19 -56z"/>
<path d="M1655 4030 c-18 -8 -17 -9 6 -9 27 -1 39 -21 39 -68 0 -12 5 -25 10
-28 7 -4 8 12 4 48 -6 48 -4 56 12 60 11 3 3 5 -16 5 -19 0 -44 -3 -55 -8z"/>
<path d="M2787 4000 c-24 -69 -34 -110 -28 -115 10 -6 44 100 38 117 -3 10 -6
9 -10 -2z"/>
<path d="M1540 3993 c0 -5 5 -24 11 -42 6 -18 9 -35 6 -38 -4 -3 -27 7 -52 22
-26 15 -49 24 -52 22 -3 -3 4 -32 16 -64 l21 -58 -6 49 -6 48 51 -28 c28 -15
53 -25 56 -22 3 3 -4 30 -15 59 -23 56 -30 69 -30 52z"/>
<path d="M2901 3960 c-1 -3 -10 -29 -21 -58 l-20 -53 36 -15 c20 -8 38 -13 40
-11 3 2 -9 10 -26 17 -35 15 -34 9 -14 59 9 22 14 46 11 53 -3 7 -6 11 -6 8z"/>
<path d="M1330 3918 c0 -15 49 -118 53 -111 6 10 -35 113 -45 113 -5 0 -8 -1
-8 -2z"/>
<path d="M3046 3846 c-14 -24 -26 -49 -26 -53 0 -10 70 -46 77 -40 2 2 -10 10
-27 17 -36 15 -36 19 -9 71 28 56 17 60 -15 5z"/>
<path d="M1174 3803 c3 -21 6 -53 6 -71 0 -19 4 -31 10 -27 5 3 7 12 4 19 -3
8 10 22 32 35 28 17 39 19 50 10 8 -7 17 -9 20 -6 9 8 -88 76 -110 77 -16 0
-18 -5 -12 -37z m55 0 c23 -15 23 -17 6 -30 -29 -20 -42 -16 -47 17 -5 34 6
38 41 13z"/>
<path d="M3220 3800 c0 -6 -12 -29 -26 -51 -14 -23 -24 -42 -22 -43 21 -16 78
-43 63 -31 -11 9 -26 20 -33 24 -15 8 -6 41 12 41 6 0 23 -7 36 -16 21 -13 20
-12 -3 8 -19 16 -26 30 -21 41 7 20 17 21 47 6 19 -9 18 -7 -3 10 -27 22 -50
27 -50 11z"/>
<path d="M1019 3745 c-29 -15 -43 -41 -33 -57 4 -6 26 -8 56 -4 47 7 49 6 46
-16 -2 -12 -14 -28 -28 -35 -17 -9 -20 -13 -8 -13 9 0 26 12 37 26 16 21 18
30 10 46 -7 13 -16 17 -27 13 -9 -3 -29 -9 -44 -12 -24 -5 -28 -2 -28 16 0 11
4 21 8 21 5 0 17 7 28 15 24 18 17 18 -17 0z"/>
<path d="M3361 3643 c2 -6 38 -40 80 -76 123 -108 259 -272 362 -438 56 -90
163 -323 187 -410 79 -285 93 -377 94 -614 0 -174 -14 -309 -41 -399 -3 -11
-1 -16 5 -12 6 3 18 50 29 104 28 150 25 518 -6 661 -94 437 -257 752 -537
1036 -94 95 -181 170 -173 148z"/>
<path d="M757 3542 c-15 -16 -13 -21 27 -64 l43 -47 34 36 c32 34 24 37 -13 5
-15 -12 -20 -12 -33 -2 -14 12 -13 16 7 38 l23 25 -28 -18 c-26 -17 -30 -17
-44 -2 -13 13 -14 19 -3 31 17 22 7 20 -13 -2z"/>
<path d="M630 3413 c-11 -14 -19 -31 -17 -37 4 -12 45 -12 90 -1 34 9 37 -15
7 -45 -11 -11 -16 -20 -12 -20 16 0 42 36 42 59 0 30 -22 36 -59 16 -50 -25
-74 8 -29 39 12 9 17 16 11 16 -6 0 -21 -12 -33 -27z"/>
<path d="M1499 3272 l-34 -37 35 30 c19 17 37 31 39 33 2 1 2 4 -1 7 -2 3 -20
-12 -39 -33z"/>
<path d="M517 3282 c-21 -23 -22 -58 -1 -66 9 -3 27 3 41 14 14 11 32 20 39
20 23 0 16 -47 -8 -64 -12 -9 -18 -16 -12 -16 19 0 44 36 44 63 0 37 -17 43
-51 18 -15 -11 -35 -21 -44 -21 -20 0 -19 29 2 52 9 10 14 18 11 18 -3 0 -12
-8 -21 -18z"/>
<path d="M1645 3237 c-100 -48 -128 -109 -126 -278 l1 -105 -30 -22 c-16 -12
-33 -22 -37 -22 -5 0 -13 -9 -18 -19 -6 -10 -27 -48 -47 -82 -70 -121 -77
-301 -18 -466 44 -124 46 -131 24 -140 -64 -24 -148 -125 -171 -206 -20 -74
-29 -293 -13 -354 6 -26 13 -102 15 -168 4 -122 13 -169 39 -211 9 -12 19 -42
23 -66 6 -36 8 -39 13 -19 3 14 10 26 16 28 13 4 42 -120 50 -220 4 -43 11
-80 15 -83 5 -3 9 -17 9 -32 0 -41 14 -54 64 -59 52 -6 58 5 32 55 -17 33 -75
309 -83 396 -6 68 4 96 53 151 l27 29 51 -55 c105 -114 135 -175 136 -282 0
-79 -9 -101 -51 -122 -27 -15 -30 -20 -27 -58 4 -56 25 -59 78 -11 73 66 89
105 96 235 l6 114 -66 110 c-60 100 -66 114 -61 150 6 37 5 39 -9 20 -22 -29
-20 -50 13 -108 34 -61 56 -212 29 -202 -8 3 -21 18 -30 33 -9 15 -40 54 -68
87 -79 92 -79 89 -23 178 41 65 52 77 76 77 15 0 27 -5 27 -10 0 -6 6 -5 14 2
18 17 13 24 -25 32 -23 4 -29 10 -25 23 12 42 11 146 -1 150 -7 3 -13 0 -13
-6 0 -6 -6 -11 -14 -11 -7 0 -16 -13 -19 -28 -3 -16 -22 -45 -41 -64 -20 -20
-36 -40 -36 -46 0 -5 -7 -15 -15 -22 -12 -10 -13 -15 -4 -20 8 -6 8 -9 -1 -15
-7 -4 -13 1 -17 13 -5 20 -44 34 -61 23 -4 -3 -11 -14 -15 -23 -6 -18 -27 -25
-27 -10 -1 4 -3 34 -5 66 -3 34 0 65 6 72 7 9 6 15 -7 22 -20 11 -33 75 -34
170 0 55 -4 74 -15 78 -8 4 -13 10 -10 14 3 5 -4 6 -14 3 -11 -3 -22 -14 -25
-26 -3 -12 -8 -19 -11 -15 -11 11 28 93 59 124 63 63 118 51 263 -57 37 -28
93 -66 124 -85 55 -35 56 -36 89 -132 41 -118 46 -227 15 -304 -15 -36 -17
-50 -8 -59 9 -9 12 -5 11 17 -1 16 6 43 14 59 8 17 18 43 22 58 4 15 11 25 16
22 5 -3 7 -12 4 -19 -6 -15 23 -42 33 -32 4 4 2 10 -4 14 -19 12 -2 26 57 46
30 11 71 32 90 48 19 15 39 28 44 28 10 0 1 -169 -15 -270 -7 -45 -7 -66 0
-68 6 -2 11 -12 11 -23 0 -24 37 -104 56 -119 9 -9 21 -9 41 -2 26 10 27 10 4
11 -20 1 -22 5 -17 27 5 18 3 24 -5 18 -7 -4 -10 -2 -7 7 3 8 14 15 26 17 12
2 22 8 22 14 0 6 -12 8 -30 5 -25 -6 -30 -3 -30 13 0 17 5 19 25 14 23 -6 28
-1 53 52 l27 59 3 -62 c2 -35 -1 -84 -5 -110 -5 -27 -5 -70 -2 -98 4 -27 2
-89 -4 -138 -9 -76 -8 -92 6 -122 9 -20 17 -48 17 -64 0 -22 7 -31 29 -41 16
-6 38 -10 50 -8 21 3 20 4 -5 58 -20 42 -26 69 -25 115 1 79 22 167 41 173 12
4 13 2 3 -9 -21 -21 -15 -58 13 -84 37 -34 56 -31 93 15 17 22 37 40 42 40 22
0 -5 -47 -52 -94 -39 -37 -49 -54 -47 -75 4 -33 32 -39 61 -14 12 11 33 24 48
30 31 13 72 92 123 238 13 39 33 95 45 125 24 64 20 98 -17 155 -27 41 -89
120 -130 165 -39 43 -38 64 6 153 41 81 169 254 180 242 3 -3 21 -45 39 -93
31 -82 32 -88 16 -112 l-16 -25 21 19 c21 18 22 18 32 -9 22 -57 72 -181 82
-202 9 -17 6 -35 -10 -78 -12 -31 -18 -54 -14 -51 5 3 14 23 22 45 7 23 16 41
19 41 4 0 20 -35 36 -77 25 -65 30 -96 35 -204 3 -70 8 -131 12 -134 3 -4 9
24 13 62 9 82 19 107 30 72 31 -101 47 -129 71 -129 34 0 32 30 -11 129 -66
155 -67 158 -55 309 6 76 18 209 26 297 9 88 16 250 17 360 1 185 -1 208 -25
300 -30 119 -67 203 -79 183 -5 -7 -9 -22 -9 -34 0 -25 -29 -115 -41 -128 -6
-6 -13 -6 -20 1 -9 9 -2 34 26 100 21 48 41 92 46 97 17 18 9 36 -15 36 -13 0
-26 4 -28 8 -7 18 -167 140 -190 145 -20 5 -26 15 -30 44 -10 70 -48 179 -79
226 -44 67 -88 91 -152 83 -89 -10 -147 -73 -147 -160 l0 -51 -23 55 c-37 89
-81 165 -98 168 -9 2 -20 -8 -27 -23 -14 -30 -15 -38 -4 -32 4 3 49 -83 100
-191 91 -191 93 -196 74 -211 -32 -25 -52 -77 -66 -162 l-13 -80 35 -15 c19
-7 37 -14 39 -14 3 0 30 -18 62 -40 71 -50 117 -55 75 -9 -9 10 -18 36 -21 58
l-6 41 38 0 c32 0 37 3 32 20 -8 30 17 25 57 -11 20 -17 40 -28 46 -24 5 3 13
-1 16 -10 4 -9 10 -12 13 -7 3 5 26 13 50 17 33 5 42 4 39 -6 -8 -25 -175
-109 -217 -109 -23 -1 -24 -2 -8 -11 16 -9 13 -15 -25 -54 -24 -25 -46 -45
-51 -45 -4 0 -20 -14 -35 -32 -15 -17 -43 -47 -62 -67 -19 -20 -39 -45 -45
-55 -16 -31 -31 -29 -45 4 -19 46 -22 31 -5 -32 36 -139 52 -251 37 -256 -7
-2 -12 -10 -12 -18 0 -24 -17 -7 -23 23 -12 64 -19 88 -26 93 -5 3 -12 20 -16
38 -3 17 -11 32 -17 32 -6 0 -8 10 -4 25 5 20 3 25 -13 25 -14 0 -19 5 -15 15
4 8 2 15 -4 15 -5 0 -15 27 -22 61 -7 33 -28 85 -47 116 -32 54 -33 59 -29
142 2 47 5 90 5 95 1 4 10 -2 22 -15 22 -26 22 -23 -4 33 -18 39 -46 67 -33
32 4 -10 4 -15 -1 -11 -4 5 -8 21 -9 37 -2 29 -1 29 42 -18 l44 -47 -40 61
c-22 34 -52 69 -65 78 -14 9 -23 21 -20 26 3 5 -6 12 -21 16 -14 4 -29 2 -33
-3 -3 -6 -21 -14 -38 -18 -18 -3 -41 -17 -51 -30 -11 -13 -32 -27 -47 -31 -27
-7 -28 -6 -21 22 9 38 55 94 95 118 34 20 102 26 138 13 18 -7 22 -5 17 7 -4
11 -21 14 -70 13 -69 -2 -72 1 -53 50 6 16 6 29 1 31 -12 4 5 114 20 127 7 7
9 7 6 0 -3 -5 -1 -19 3 -30 7 -14 8 -5 4 28 -16 157 -177 258 -310 194z m135
-6 c19 -5 12 -9 -39 -18 -83 -16 -101 -29 -136 -99 -29 -56 -30 -65 -30 -189
0 -123 2 -134 33 -214 18 -46 46 -103 62 -127 29 -43 29 -44 12 -74 -9 -16
-21 -30 -27 -30 -5 0 -33 12 -62 28 -51 26 -66 42 -40 42 9 0 9 2 -1 9 -10 6
-11 17 -1 54 6 26 14 45 18 43 12 -8 4 120 -14 204 -20 98 -17 240 6 281 8 15
34 43 57 63 37 31 51 36 90 35 26 -1 58 -4 72 -8z m42 -50 c4 -3 -17 -4 -47
-3 -33 2 -53 8 -49 14 6 10 83 2 96 -11z m732 -12 c34 -26 33 -36 -3 -44 -39
-8 -51 -24 -40 -52 10 -27 30 -29 63 -8 21 14 24 14 30 -1 3 -9 1 -34 -4 -55
-14 -50 -50 -63 -80 -28 -10 13 -19 34 -20 46 0 26 -35 53 -67 53 -17 0 -23 6
-23 23 0 28 22 50 70 71 45 19 43 20 74 -5z m-729 -86 c19 -21 35 -46 35 -56
0 -15 -6 -17 -34 -12 -45 9 -76 -8 -76 -42 0 -14 -8 -32 -17 -39 -22 -16 -5
-38 23 -32 15 3 19 12 19 47 0 27 5 46 13 49 20 6 64 -7 57 -18 -4 -7 -13 -6
-25 0 -25 13 -33 13 -28 -2 3 -7 18 -15 33 -18 l29 -5 -33 -38 c-21 -23 -40
-36 -50 -33 -52 16 -71 17 -71 7 0 -6 12 -17 28 -23 l27 -12 -25 -4 c-31 -5
-65 35 -85 102 -16 51 -13 68 7 48 20 -20 65 -15 71 8 6 23 -18 40 -57 40 -14
0 -26 4 -26 8 0 17 46 51 75 55 67 9 75 7 110 -30z m108 7 c3 -11 1 -23 -4
-26 -5 -3 -9 6 -9 20 0 31 6 34 13 6z m-227 -71 c8 -14 -40 -11 -60 4 -16 12
-14 13 18 9 20 -2 39 -8 42 -13z m784 -41 c0 -10 8 -18 18 -18 11 0 8 -5 -11
-15 -21 -11 -33 -12 -52 -3 -34 15 -39 37 -11 48 13 5 27 14 31 20 9 15 25 -6
25 -32z m-591 -117 c-8 -29 -18 -41 -31 -41 -26 0 -23 41 5 72 29 34 41 20 26
-31z m521 -12 c0 -6 -4 -7 -10 -4 -5 3 -10 11 -10 16 0 6 5 7 10 4 6 -3 10
-11 10 -16z m-735 1 c3 -5 22 -10 41 -10 29 0 34 -3 36 -25 0 -14 1 -28 2 -32
1 -5 -7 -19 -16 -32 -14 -19 -20 -22 -31 -13 -12 11 -67 107 -67 118 0 8 29 4
35 -6z m944 -36 c12 -20 20 -38 19 -40 -2 -1 -21 -14 -41 -29 -33 -22 -38 -23
-33 -7 4 11 0 32 -9 48 -20 38 -19 43 8 54 33 13 33 13 56 -26z m-1099 9 c7
-47 3 -145 -10 -212 -13 -70 -13 -75 4 -85 11 -6 40 -25 65 -41 41 -27 45 -34
41 -60 -3 -17 -5 -92 -5 -169 l0 -139 -77 84 c-43 46 -78 87 -78 92 0 4 -9 7
-19 7 -18 0 -19 -2 -5 -30 9 -16 21 -33 27 -37 7 -5 18 -19 25 -33 41 -79 184
-190 244 -190 20 0 41 -6 47 -14 14 -17 59 -27 67 -14 3 5 -9 14 -26 20 -28 9
-30 12 -15 20 9 6 19 7 22 5 3 -3 14 3 26 13 16 15 23 17 34 8 8 -6 12 -20 9
-30 -3 -14 3 -22 21 -29 40 -15 98 -83 123 -144 l23 -56 -22 -23 c-33 -35
-101 -47 -148 -26 -48 22 -77 53 -103 113 -12 27 -29 50 -38 53 -9 3 -26 10
-36 16 -16 9 -18 7 -13 -11 3 -12 2 -21 -1 -21 -9 1 -75 58 -124 108 -21 20
-38 31 -38 23 0 -11 -3 -11 -15 -1 -8 7 -15 19 -15 26 0 8 -5 14 -11 14 -13 0
-38 29 -39 44 0 4 8 5 18 2 15 -5 14 -4 -2 9 -10 8 -22 16 -25 17 -3 2 -20 21
-37 43 -41 53 -62 129 -70 251 -11 169 19 265 113 361 28 29 53 53 55 53 3 0
6 -8 8 -17z m158 -70 c26 -36 31 -48 21 -59 -6 -8 -17 -14 -23 -14 -12 0 -39
68 -50 125 -5 27 -4 28 7 11 6 -10 27 -39 45 -63z m-48 -28 c0 -5 -5 -3 -10 5
-5 8 -10 20 -10 25 0 6 5 3 10 -5 5 -8 10 -19 10 -25z m149 -7 c-8 -16 -29
-26 -29 -14 0 16 13 33 25 33 10 0 11 -5 4 -19z m196 -14 c33 -22 50 -76 33
-104 -11 -17 -11 -22 1 -29 7 -5 14 -26 15 -47 1 -36 -1 -39 -34 -48 -53 -13
-113 8 -165 58 -46 44 -57 80 -33 104 25 25 45 14 46 -25 1 -20 6 -41 12 -47
8 -8 9 1 4 32 l-7 43 29 -7 29 -6 -24 18 -24 18 33 28 c39 32 51 34 85 12z
m865 -140 c-15 -84 -25 -107 -40 -84 -5 8 -10 24 -10 35 0 32 29 143 42 165
12 20 13 19 16 -12 2 -18 -2 -65 -8 -104z m-1090 101 c0 -8 -4 -15 -10 -15 -5
0 -7 7 -4 15 4 8 8 15 10 15 2 0 4 -7 4 -15z m1034 -39 c-3 -15 -8 -25 -11
-23 -2 3 -1 17 3 31 3 15 8 25 11 23 2 -3 1 -17 -3 -31z m-1008 -58 l17 -32
-39 -34 c-33 -29 -34 -31 -7 -13 18 12 35 26 38 31 3 5 35 -7 71 -27 58 -31
71 -35 119 -31 l55 5 -27 -36 c-47 -65 -107 -122 -156 -148 -57 -32 -56 -43 2
-14 36 19 99 78 161 151 l21 25 -7 -45 c-9 -59 -35 -111 -81 -156 -27 -26 -31
-33 -15 -25 22 12 23 11 17 -11 -13 -41 -66 -117 -79 -112 -7 3 -20 20 -29 39
-15 32 -15 33 6 39 12 3 31 12 42 21 14 10 6 9 -25 -5 l-45 -19 -14 32 c-32
73 -40 93 -46 120 l-7 27 72 -1 c87 -2 103 12 63 53 -15 16 -33 28 -41 28 -12
0 -12 3 -2 15 14 17 8 19 -52 9 -37 -7 -43 -24 -8 -24 10 0 20 -7 24 -15 3 -8
12 -15 20 -15 8 0 17 -4 21 -9 3 -6 -9 -5 -30 0 -28 8 -43 7 -67 -5 -17 -9
-38 -16 -47 -17 -9 -1 -5 -4 8 -8 18 -5 28 -20 41 -61 22 -71 76 -184 96 -200
13 -11 12 -16 -7 -37 -13 -12 -30 -23 -39 -23 -20 0 -62 44 -84 88 -24 46 -55
229 -42 242 7 7 5 10 -6 10 -21 0 -30 14 -22 34 4 11 20 16 53 17 25 1 36 4
24 6 -13 2 -23 8 -23 13 0 5 -7 7 -15 4 -19 -8 -19 9 1 49 17 34 62 97 69 97
3 0 12 -14 21 -32z m90 -163 c10 -8 15 -14 9 -14 -5 0 -19 6 -29 14 -11 8 -15
15 -10 15 6 0 19 -7 30 -15z m184 -95 c11 0 44 -70 59 -125 21 -79 40 -201 45
-286 5 -85 4 -87 -25 -115 l-29 -28 -1 40 c-1 21 -3 48 -4 59 -1 11 -5 52 -9
90 -8 73 -30 178 -45 217 -5 13 -16 39 -25 59 -13 31 -13 39 0 63 8 16 15 36
15 45 1 14 2 13 6 -1 2 -10 9 -18 13 -18z m577 -14 c-4 -9 1 -17 11 -19 10 -3
5 -5 -10 -6 -22 -1 -28 4 -28 19 0 12 7 20 16 20 10 0 14 -6 11 -14z m-47 -27
c0 -10 6 -19 13 -19 7 0 18 -9 25 -21 8 -12 9 -18 3 -14 -6 3 -11 1 -11 -4 0
-6 -7 -11 -15 -11 -8 0 -15 -5 -15 -10 0 -7 8 -7 22 1 17 9 23 9 26 0 2 -6 7
-9 12 -6 4 2 17 -25 29 -60 23 -73 26 -89 11 -80 -6 4 -10 -6 -10 -22 0 -34
-15 -62 -107 -198 -40 -58 -78 -124 -84 -145 -15 -48 -23 -50 -44 -10 -9 17
-19 30 -24 30 -19 0 -18 -15 5 -51 13 -21 24 -42 24 -46 0 -11 71 -104 132
-175 74 -85 83 -131 21 -107 -22 8 -26 8 -15 -2 14 -15 16 -49 3 -49 -20 0
-28 54 -12 81 14 25 14 29 -3 48 -11 12 -28 21 -39 21 -18 0 -18 -1 3 -36 32
-56 20 -70 -32 -35 -24 15 -70 43 -103 61 -33 18 -69 39 -80 46 -11 8 -26 14
-35 14 -13 0 -15 25 -13 182 1 177 2 183 24 201 21 17 23 26 20 88 -2 60 0 69
15 69 24 0 74 49 67 66 -3 8 0 14 7 14 7 0 10 6 7 13 -3 8 9 27 26 43 l30 29
-6 -35 -7 -35 18 23 c11 14 24 21 34 17 9 -4 19 -2 23 4 3 6 -1 11 -9 11 -24
0 -19 15 9 28 14 6 25 17 26 24 1 7 2 20 3 28 2 8 3 25 4 38 2 27 22 20 22 -9z
m325 -36 c23 -25 47 -82 39 -92 -2 -2 -19 3 -36 12 -18 9 -45 18 -59 21 -32 7
-79 43 -79 61 0 14 23 21 77 24 23 1 39 -7 58 -26z m-900 -68 c1 -11 6 -29 11
-40 15 -31 12 -131 -4 -127 -8 1 -11 -2 -7 -9 5 -8 10 -8 18 0 17 17 27 13 27
-9 0 -40 -28 -31 -93 31 l-65 62 29 48 c58 100 61 103 73 82 6 -10 11 -27 11
-38z m-335 -10 c0 -25 -4 -45 -9 -45 -12 0 -21 41 -14 68 9 38 23 24 23 -23z
m50 -55 c7 -16 18 -35 26 -41 20 -16 17 -29 -6 -29 -12 0 -32 11 -45 25 -22
21 -24 27 -13 50 15 33 23 32 38 -5z m-307 -37 c-7 -2 -21 -2 -30 0 -10 3 -4
5 12 5 17 0 24 -2 18 -5z m1593 -101 c15 -58 15 -64 -3 -99 -10 -21 -31 -44
-46 -51 -25 -12 -31 -12 -49 5 -11 10 -26 31 -33 48 l-13 30 -1 -29 c-1 -44
-20 -20 -27 35 -6 42 -4 49 22 73 16 14 34 26 41 26 7 0 13 3 13 8 0 4 12 15
28 24 36 22 48 10 68 -70z m-187 -77 c0 -5 -6 1 -14 15 -8 14 -14 30 -14 35 0
6 6 -1 14 -15 8 -14 14 -29 14 -35z m84 -86 l38 -13 -4 -74 c-2 -40 -1 -68 4
-61 4 7 9 -16 11 -49 3 -69 -7 -83 -18 -24 -4 20 -10 39 -13 42 -4 3 -24 48
-45 100 -55 136 -53 128 -30 109 10 -9 36 -23 57 -30z m-103 -12 c0 -5 -4 -5
-10 -2 -5 3 -10 14 -10 23 0 15 2 15 10 2 5 -8 10 -19 10 -23z m-549 -115 c0
-111 -28 -274 -62 -352 l-21 -50 -49 0 c-26 0 -51 4 -54 10 -3 5 -1 36 5 67 6
32 15 130 21 218 9 155 11 161 36 183 15 12 34 20 43 17 9 -3 27 4 40 15 34
29 40 12 41 -108z m-381 48 c38 -23 67 -31 111 -34 32 -2 59 0 59 4 0 3 7 15
15 26 14 18 14 18 15 -4 0 -35 -46 -72 -89 -72 -55 1 -120 35 -165 88 -26 30
-6 28 54 -8z m-575 -65 c19 -68 17 -205 -3 -241 -14 -26 -46 85 -45 161 0 77
12 157 23 150 4 -2 16 -34 25 -70z m699 -32 l49 4 -24 -19 c-65 -51 -110 -71
-150 -65 -23 3 -42 7 -44 9 -1 1 -6 33 -9 69 l-7 66 68 -34 c57 -28 76 -33
117 -30z m-584 -153 c-19 -13 -30 -13 -30 0 0 6 10 10 23 10 18 0 19 -2 7 -10z
m876 -35 c4 -8 10 -13 14 -10 4 3 13 -2 20 -10 7 -8 16 -12 21 -9 5 3 9 0 9
-6 0 -6 5 -8 10 -5 13 8 13 -15 0 -35 -8 -12 -10 -12 -11 5 0 15 -4 12 -15
-12 -14 -32 -29 -47 -18 -18 4 8 1 15 -5 15 -6 0 -14 1 -17 3 -3 1 -7 -18 -9
-43 -1 -25 -8 -72 -15 -105 -11 -50 -14 -56 -20 -35 -4 14 -4 30 -1 35 9 14 7
90 -3 147 -5 26 -5 59 -2 73 7 27 33 34 42 10z m147 -67 c52 -37 97 -90 103
-123 4 -21 -4 -62 -21 -118 l-27 -87 -42 7 c-22 3 -57 11 -76 18 l-35 12 3 74
c3 62 33 205 49 232 6 11 12 9 46 -15z m-329 -134 c4 -11 1 -14 -11 -12 -9 2
-18 9 -21 16 -6 18 25 15 32 -4z m16 -53 c0 -5 3 -18 6 -28 5 -16 4 -16 -10 1
-18 23 -20 36 -6 36 6 0 10 -4 10 -9z m288 -137 c26 -7 28 -21 6 -49 -16 -19
-16 -19 -10 5 6 23 6 23 -7 8 -8 -10 -18 -18 -23 -18 -4 0 -3 5 4 12 15 15 16
32 2 23 -5 -3 -10 -2 -10 4 0 5 -8 12 -17 14 -12 3 -10 5 7 6 14 0 35 -2 48
-5z"/>
<path d="M1610 2017 c0 -10 5 -17 11 -17 6 0 9 -6 6 -14 -8 -20 15 -27 36 -11
22 16 22 25 0 25 -9 0 -25 7 -35 17 -17 15 -18 15 -18 0z"/>
<path d="M1686 1959 c3 -5 9 -7 14 -4 4 3 11 0 13 -5 3 -6 4 -5 3 1 -1 7 -10
13 -19 15 -9 1 -15 -2 -11 -7z"/>
<path d="M1897 2559 c7 -7 15 -10 18 -7 3 3 -2 9 -12 12 -14 6 -15 5 -6 -5z"/>
<path d="M1980 2549 c0 -5 5 -7 10 -4 6 3 10 8 10 11 0 2 -4 4 -10 4 -5 0 -10
-5 -10 -11z"/>
<path d="M2556 2171 c-3 -5 1 -11 9 -14 9 -4 12 -1 8 9 -6 16 -10 17 -17 5z"/>
<path d="M2631 2144 c0 -11 3 -14 6 -6 3 7 2 16 -1 19 -3 4 -6 -2 -5 -13z"/>
<path d="M2606 2135 c4 -8 8 -15 10 -15 2 0 4 7 4 15 0 8 -4 15 -10 15 -5 0
-7 -7 -4 -15z"/>
<path d="M2820 2230 c-13 -8 -12 -10 3 -10 10 0 16 -4 12 -9 -5 -10 6 -15 64
-26 l34 -7 -22 31 c-23 32 -60 41 -91 21z"/>
<path d="M2010 2106 c0 -9 5 -16 10 -16 6 0 10 4 10 9 0 6 -4 13 -10 16 -5 3
-10 -1 -10 -9z"/>
<path d="M2955 1868 c-9 -23 2 -51 17 -46 18 6 20 22 4 43 -14 19 -15 19 -21
3z"/>
<path d="M2280 1390 c0 -5 7 -10 16 -10 8 0 12 5 9 10 -3 6 -10 10 -16 10 -5
0 -9 -4 -9 -10z"/>
<path d="M421 3153 c1 -13 90 -75 97 -68 7 7 -22 31 -70 59 -15 10 -28 14 -27
9z"/>
<path d="M1399 3124 c-5 -15 -8 -29 -5 -31 2 -2 8 10 14 26 13 38 5 41 -9 5z"/>
<path d="M2153 3080 c0 -36 2 -50 4 -32 2 17 2 47 0 65 -2 17 -4 3 -4 -33z"/>
<path d="M1383 3030 c0 -25 2 -35 4 -22 2 12 2 32 0 45 -2 12 -4 2 -4 -23z"/>
<path d="M345 3015 c-31 -30 -32 -68 -3 -95 28 -25 48 -25 82 1 33 26 34 68 3
97 -30 28 -52 28 -82 -3z m77 -12 c22 -20 23 -41 1 -65 -20 -22 -51 -23 -75
-1 -22 20 -23 46 -2 67 20 21 53 20 76 -1z"/>
<path d="M2161 2994 c0 -11 3 -14 6 -6 3 7 2 16 -1 19 -3 4 -6 -2 -5 -13z"/>
<path d="M1936 2964 c-4 -14 -5 -29 -2 -31 3 -3 8 7 12 21 3 15 4 29 1 32 -2
3 -8 -7 -11 -22z"/>
<path d="M249 2818 c-12 -23 -12 -23 9 -4 18 15 24 16 37 6 18 -15 19 -34 5
-60 -9 -17 -14 -18 -35 -8 -14 6 -25 18 -25 27 0 14 -2 14 -10 1 -15 -23 -13
-26 28 -43 54 -23 82 -30 82 -19 0 5 -9 12 -20 15 -28 7 -16 34 24 53 20 9 24
13 9 10 -15 -3 -27 4 -38 20 -20 30 -51 31 -66 2z"/>
<path d="M2055 2700 c10 -11 20 -20 23 -20 3 0 -3 9 -13 20 -10 11 -20 20 -23
20 -3 0 3 -9 13 -20z"/>
<path d="M2120 2620 c13 -23 20 -26 20 -6 0 8 -7 16 -15 20 -13 4 -14 2 -5
-14z"/>
<path d="M233 2623 c-80 -5 -83 -23 -13 -82 28 -23 50 -40 50 -38 0 14 -28 56
-34 50 -8 -9 -57 38 -50 48 3 5 18 9 35 9 23 0 29 -4 30 -22 l0 -23 9 23 c5
12 16 22 25 22 8 0 15 5 15 10 0 6 -1 9 -2 8 -2 -1 -31 -3 -65 -5z"/>
<path d="M2195 2540 c13 -15 19 -35 18 -71 -1 -57 -6 -67 -28 -49 -12 10 -15
10 -15 -2 0 -18 38 -64 46 -55 10 10 17 123 10 161 -5 28 -12 36 -28 36 -21 0
-21 0 -3 -20z"/>
<path d="M2258 2530 c12 -59 4 -140 -18 -178 -17 -28 -19 -37 -8 -46 7 -6 9
-7 5 -2 -3 5 3 24 14 42 28 46 35 128 15 179 -16 39 -16 39 -8 5z"/>
<path d="M131 2426 c-7 -8 -16 -28 -21 -44 -8 -30 -8 -31 41 -41 66 -14 92
-14 61 1 -18 9 -22 17 -17 36 9 36 -3 62 -29 62 -13 0 -29 -6 -35 -14z m48
-10 c16 -19 3 -69 -16 -62 -8 3 -21 6 -29 6 -16 0 -18 23 -4 51 13 22 33 25
49 5z"/>
<path d="M2115 2385 c19 -20 35 -40 35 -45 0 -6 5 -9 12 -7 13 2 69 -93 62
-105 -3 -4 0 -8 5 -8 16 0 14 6 -21 72 -28 54 -98 128 -120 128 -5 0 7 -16 27
-35z"/>
<path d="M2258 2262 c13 -17 28 -35 34 -39 7 -3 2 8 -10 25 -13 17 -28 35 -34
39 -7 3 -2 -8 10 -25z"/>
<path d="M156 2189 c-10 -47 11 -362 31 -459 27 -136 103 -352 168 -484 36
-71 65 -132 65 -136 0 -4 -11 -12 -25 -18 -27 -13 -32 -40 -13 -75 17 -34 38
-45 94 -52 48 -7 53 -10 103 -76 84 -110 236 -257 366 -354 116 -87 293 -193
365 -220 19 -7 90 -34 157 -59 68 -25 137 -46 155 -45 25 0 16 5 -38 19 -272
74 -605 266 -817 473 -106 104 -136 154 -178 298 l-22 76 48 58 c61 75 80 120
66 152 -12 27 -42 30 -65 7 -23 -22 -20 -28 6 -10 36 26 48 20 48 -23 0 -30
-9 -50 -41 -90 -22 -28 -45 -51 -50 -51 -14 0 -10 82 6 115 l15 30 -25 -30
c-13 -16 -26 -27 -28 -25 -11 11 -39 109 -44 151 l-5 46 56 31 c30 18 63 43
72 57 15 23 15 27 0 50 -13 20 -22 24 -39 19 -39 -12 -66 -38 -84 -81 -10 -24
-21 -43 -26 -43 -4 0 -24 34 -45 75 -36 74 -36 77 -20 105 14 25 14 28 1 23
-13 -5 -15 0 -9 33 10 54 38 98 64 102 18 3 22 -1 22 -25 0 -16 -7 -40 -16
-53 l-16 -25 21 24 c39 43 18 116 -26 92 -10 -5 -25 -21 -33 -35 -17 -34 -26
-33 -33 3 -3 16 -13 36 -22 44 -35 36 -68 -18 -45 -74 17 -40 10 -44 -34 -18
-23 13 -45 19 -60 15 -23 -6 -25 -3 -36 63 -6 38 -15 152 -19 253 -5 128 -9
172 -15 147z m214 -408 c12 -24 13 -118 1 -125 -8 -5 -28 41 -46 101 -12 42
25 61 45 24z m-63 -103 c65 -56 67 -68 7 -43 -45 19 -74 43 -74 62 0 22 28 15
67 -19z m-50 -20 c13 -12 47 -32 76 -43 74 -30 74 -51 0 -51 -32 1 -64 -1 -72
-4 -11 -4 -19 12 -32 58 -19 68 -12 78 28 40z m120 -113 c42 -18 37 -27 -22
-49 -30 -11 -34 -15 -17 -15 13 -1 36 6 52 14 l30 15 29 -57 c32 -65 57 -140
49 -149 -4 -3 -24 4 -47 15 -49 25 -69 26 -93 5 -17 -16 -19 -14 -43 38 -14
30 -28 69 -31 86 -6 28 -4 32 12 27 15 -5 15 -3 -3 11 -25 18 -31 59 -10 67
23 10 58 7 94 -8z m240 -11 c3 -8 0 -25 -6 -37 -13 -24 -97 -74 -107 -64 -3 3
-1 22 6 41 19 59 91 100 107 60z m-183 -218 c40 -17 76 -50 76 -70 0 -12 -7
-12 -51 -1 -80 21 -126 62 -86 78 20 9 26 8 61 -7z m13 -78 c38 -11 71 -24 75
-27 4 -3 15 -45 26 -93 14 -65 16 -88 7 -88 -12 0 -74 44 -106 75 -18 17 -79
130 -79 145 0 13 -1 13 77 -12z m7 -162 c36 -15 116 -82 116 -97 0 -12 -64
-11 -115 1 -72 16 -106 103 -42 109 4 1 23 -5 41 -13z m143 -146 c18 -37 3
-47 -24 -14 -12 16 -23 33 -23 37 0 18 35 1 47 -23z"/>
<path d="M2260 1940 c0 -5 5 -10 11 -10 5 0 7 5 4 10 -3 6 -8 10 -11 10 -2 0
-4 -4 -4 -10z"/>
<path d="M2687 1622 c-25 -43 -52 -84 -61 -91 -9 -8 -16 -19 -16 -25 0 -6 9 0
20 14 32 39 111 172 107 177 -3 2 -25 -31 -50 -75z"/>
<path d="M2777 1543 c-17 -26 -47 -64 -66 -85 -18 -21 -26 -36 -17 -32 20 8
136 164 121 164 -3 0 -20 -21 -38 -47z"/>
<path d="M2802 1309 c-23 -44 -38 -78 -32 -74 14 9 82 133 78 145 -1 5 -22
-27 -46 -71z"/>
<path d="M1832 1314 c10 -10 20 -15 24 -12 3 4 -5 12 -18 18 -22 12 -22 12 -6
-6z"/>
<path d="M1900 1223 c0 -32 3 -43 9 -34 7 11 10 9 13 -10 2 -16 9 -24 20 -23
10 1 15 -2 13 -7 -3 -4 4 -13 15 -19 18 -10 20 -8 20 25 0 34 14 48 23 23 2
-7 6 4 8 25 5 34 3 37 -21 37 -14 1 -36 7 -50 15 -42 24 -50 19 -50 -32z m58
-13 c19 -18 29 -40 19 -40 -11 0 -65 48 -60 53 10 11 18 8 41 -13z"/>
<path d="M2733 1198 c-20 -26 -26 -41 -15 -34 12 7 36 46 29 46 -3 0 -9 -6
-14 -12z"/>
<path d="M2180 1181 c0 -6 5 -13 10 -16 6 -3 10 1 10 9 0 9 -4 16 -10 16 -5 0
-10 -4 -10 -9z"/>
<path d="M2767 1005 c-19 -26 -67 -34 -97 -15 -16 10 -11 13 35 23 11 3 -1 5
-27 6 -80 2 -62 -24 51 -74 88 -39 201 -59 201 -36 0 6 -10 10 -22 9 -13 -2
-24 2 -25 7 -1 6 9 9 22 7 36 -5 31 5 -14 26 -35 17 -38 17 -34 2 7 -26 -20
-42 -51 -30 -32 12 -33 20 -2 44 21 15 23 21 13 37 -16 25 -28 24 -50 -6z m43
-4 c0 -12 -51 -53 -58 -46 -6 6 38 55 50 55 4 0 8 -4 8 -9z"/>
</g>
</svg>
