<?xml version="1.0" standalone="no"?>
<!DOCTYPE svg PUBLIC "-//W3C//DTD SVG 20010904//EN"
 "http://www.w3.org/TR/2001/REC-SVG-20010904/DTD/svg10.dtd">
<svg version="1.0" xmlns="http://www.w3.org/2000/svg"
 width="145.000000pt" height="145.000000pt" viewBox="0 0 145.000000 145.000000"
 preserveAspectRatio="xMidYMid meet">
<metadata>
Created by potrace 1.14, written by Peter Selinger 2001-2017
</metadata>
<g transform="translate(0.000000,145.000000) scale(0.100000,-0.100000)"
fill="#000000" stroke="none">
<path d="M724 1412 c-80 -36 -108 -57 -101 -76 4 -9 3 -16 -2 -16 -4 0 -5 -17
0 -37 27 -124 31 -157 27 -218 -6 -90 -23 -105 -121 -105 -38 0 -106 7 -149
16 -44 9 -82 13 -85 10 -9 -8 29 -155 42 -166 5 -4 56 -2 115 6 58 7 125 14
149 14 l44 0 -80 -83 c-108 -112 -138 -175 -138 -282 1 -132 55 -219 176 -281
l50 -25 -6 -64 c-6 -53 -4 -67 10 -81 16 -16 21 -15 91 22 83 43 90 54 81 137
-5 49 -2 55 34 104 21 29 39 54 39 57 0 2 13 18 29 35 17 18 40 58 51 89 41
107 15 209 -77 304 l-46 46 120 -5 c76 -4 126 -2 139 5 20 11 54 107 54 153 0
17 -4 20 -27 15 -80 -16 -166 -26 -230 -26 l-73 0 0 40 c0 22 -7 57 -15 77
-13 30 -13 53 -5 142 14 150 13 191 -5 191 -7 0 -18 6 -22 14 -7 12 -18 10
-69 -12z m126 -724 c32 -67 39 -137 19 -182 l-12 -25 -32 35 c-27 28 -39 34
-74 34 -61 0 -101 -41 -101 -104 0 -82 76 -129 149 -93 17 9 31 11 31 6 0 -5
7 -9 16 -9 8 0 13 4 10 9 -3 5 1 11 9 15 8 3 15 2 15 -2 0 -11 -29 -49 -30
-38 0 5 -6 3 -14 -3 -22 -19 -112 -16 -143 4 -83 55 -99 147 -46 268 18 41 33
34 33 -15 0 -16 1 -28 3 -28 1 1 31 9 67 19 l65 18 -2 77 c-1 42 0 76 3 76 3
0 18 -28 34 -62z"/>
</g>
</svg>
